<?xml version="1.0" encoding="UTF-8" standalone="no"?>
<svg
   xmlns:dc="http://purl.org/dc/elements/1.1/"
   xmlns:cc="http://creativecommons.org/ns#"
   xmlns:rdf="http://www.w3.org/1999/02/22-rdf-syntax-ns#"
   xmlns:svg="http://www.w3.org/2000/svg"
   xmlns="http://www.w3.org/2000/svg"
   version="1.1"
   id="svg2"
   viewBox="0 0 1000 1000"
   height="1000"
   width="1000">
  <defs
     id="defs4" />
  <metadata
     id="metadata7">
    <rdf:RDF>
      <cc:Work
         rdf:about="">
        <dc:format>image/svg+xml</dc:format>
        <dc:type
           rdf:resource="http://purl.org/dc/dcmitype/StillImage" />
        <dc:title></dc:title>
      </cc:Work>
    </rdf:RDF>
  </metadata>
  <g
     transform="translate(0,-52.362161)"
     id="layer1">
    <path
       id="path3372"
       d="m 484.76645,1050.0173 c -13.99476,-4.5354 -23.92692,-14.7614 -28.39844,-29.2384 -2.48485,-8.045 -2.53324,-12.1732 -2.53324,-215.63735 l 0,-207.43536 L 243.3616,597.37665 32.888612,597.0471 24.386541,592.86142 C 8.3432424,584.96311 0.09462222,571.30194 9.6895649e-4,552.47457 -0.06741805,538.73191 3.4783399,529.75215 12.486845,520.85345 18.714775,514.70144 49.395388,499.15504 480.17854,283.86593 L 941.205,53.462315 l 10.69665,-0.5419 c 15.4249,-0.781433 23.21286,2.311697 34.48679,13.697076 7.47545,7.549416 8.84777,9.710764 11.30779,17.810001 2.11695,6.969654 2.63387,11.126476 2.11924,17.043298 -0.63612,7.31233 -15.8761,38.221 -232.43113,471.3999 -210.84286,421.7529 -232.26124,464.04551 -237.4137,468.79491 -10.87684,10.0259 -29.45009,13.4573 -45.20419,8.3517 z"
       style="fill:#000000" />
  </g>
</svg>
