<?xml version="1.0" encoding="UTF-8" standalone="no"?>
<svg
   xmlns:dc="http://purl.org/dc/elements/1.1/"
   xmlns:cc="http://creativecommons.org/ns#"
   xmlns:rdf="http://www.w3.org/1999/02/22-rdf-syntax-ns#"
   xmlns:svg="http://www.w3.org/2000/svg"
   xmlns="http://www.w3.org/2000/svg"
   version="1.1"
   id="svg2"
   viewBox="0 0 1000 1000"
   height="1000"
   width="1000">
  <defs
     id="defs4" />
  <metadata
     id="metadata7">
    <rdf:RDF>
      <cc:Work
         rdf:about="">
        <dc:format>image/svg+xml</dc:format>
        <dc:type
           rdf:resource="http://purl.org/dc/dcmitype/StillImage" />
        <dc:title></dc:title>
      </cc:Work>
    </rdf:RDF>
  </metadata>
  <g
     transform="translate(0,-52.362161)"
     id="layer1">
    <path
       id="path3385"
       d="m 731.23244,1051.0458 c -27.28575,-2.7866 -61.64405,-12.157 -109.60377,-29.8919 -18.12446,-6.7023 -42.38681,-15.647 -53.91634,-19.8771 C 515.03809,981.95052 476.33068,962.60103 432.11659,933.49366 321.27912,860.52628 191.88775,731.13491 118.92037,620.29744 89.812995,576.08335 70.463509,537.37594 51.137278,484.7017 46.907092,473.17217 38.008167,449.03384 31.361889,431.06094 8.0611388,368.05086 -0.03182865,332.49528 9.4014382e-5,293.27641 0.04197023,241.88935 17.750316,187.79104 51.880702,134.78342 67.988395,109.76671 87.179133,88.402086 100.91693,80.192489 126.92868,64.648062 197.27295,48.624757 219.36695,53.211463 c 14.25676,2.959694 17.99444,8.116362 54.92155,75.772297 37.50608,68.71668 51.3836,92.71384 66.60631,115.17632 28.85423,42.577 29.54265,53.21387 5.26936,81.41653 -9.90187,11.50479 -27.50005,27.14523 -51.46704,45.7415 -23.00667,17.85114 -49.73275,43.77063 -55.26736,53.59941 -7.9913,14.19152 -4.1916,28.20779 17.59779,64.9145 7.2723,12.25102 16.95625,28.57511 21.5199,36.27575 46.7202,78.83522 108.45333,148.34858 178.75164,201.27973 20.3686,15.33654 49.01581,34.63158 69.00716,46.47907 7.70064,4.56365 24.02473,14.2476 36.27575,21.5199 36.70672,21.78939 50.72299,25.58909 64.91451,17.59779 9.82879,-5.53461 35.74827,-32.26069 53.59941,-55.26736 18.59628,-23.96699 34.23671,-41.56517 45.7415,-51.46704 28.20266,-24.27329 38.83953,-23.58487 81.41653,5.26936 22.46248,15.22271 46.45963,29.10023 115.17631,66.6063 67.65593,36.92712 72.8126,40.6648 75.7723,54.92156 4.58673,22.094 -11.4366,92.43827 -26.98103,118.45002 -8.2096,13.7378 -29.57422,32.92853 -54.59093,49.0362 -62.38233,40.1666 -124.05495,56.8794 -186.39817,50.5125 z"
       style="fill:#000000" />
  </g>
</svg>
